<svg xmlns="http://www.w3.org/2000/svg" xmlns:xlink="http://www.w3.org/1999/xlink" width="500" zoomAndPan="magnify" viewBox="0 0 375 374.999991" height="500" preserveAspectRatio="xMidYMid meet" version="1.0"><defs><clipPath id="43c5b765af"><path d="M 9.40625 0 L 343.90625 0 L 343.90625 375 L 9.40625 375 Z M 9.40625 0 " clip-rule="nonzero"/></clipPath><clipPath id="97db25c015"><path d="M 176.515625 137.828125 L 365.515625 137.828125 L 365.515625 299.828125 L 176.515625 299.828125 Z M 176.515625 137.828125 " clip-rule="nonzero"/></clipPath></defs><g clip-path="url(#43c5b765af)"><path fill="#28a08c" d="M 196.597656 374.683594 C 93.378906 374.683594 9.410156 290.714844 9.410156 187.496094 C 9.410156 84.285156 93.378906 0.316406 196.597656 0.316406 C 248.621094 0.316406 298.722656 22.234375 334.050781 60.445312 L 343.625 70.796875 L 271.144531 137.824219 L 261.5625 127.472656 C 244.617188 109.140625 221.539062 99.042969 196.597656 99.042969 C 147.816406 99.042969 108.136719 138.726562 108.136719 187.496094 C 108.136719 213.882812 119.84375 238.714844 140.25 255.625 L 122.246094 277.347656 C 95.355469 255.054688 79.929688 222.308594 79.929688 187.496094 C 79.929688 123.171875 132.265625 70.835938 196.597656 70.835938 C 224.742188 70.835938 251.074219 80.574219 272.089844 98.523438 L 303.304688 69.664062 C 274.21875 43.375 236.0625 28.527344 196.597656 28.527344 C 108.9375 28.527344 37.617188 99.835938 37.617188 187.496094 C 37.617188 275.15625 108.9375 346.472656 196.597656 346.472656 C 230.0625 346.472656 262.09375 336.1875 289.214844 316.71875 C 296.480469 311.507812 303.363281 305.617188 309.695312 299.214844 L 329.761719 319.03125 C 322.324219 326.566406 314.214844 333.5 305.65625 339.632812 C 273.71875 362.5625 236.007812 374.683594 196.597656 374.683594 " fill-opacity="1" fill-rule="nonzero"/></g><g clip-path="url(#97db25c015)"><path fill="#dcdcdc" d="M 191.480469 137.828125 L 215.535156 179.332031 L 227.546875 199.765625 L 239.554688 220.6875 L 263.800781 262.078125 L 275.660156 282.660156 L 278.453125 287.269531 L 271.050781 299.957031 L 268.257812 295.347656 L 244.199219 253.996094 L 220.144531 212.492188 L 176.636719 137.828125 Z M 343.222656 150.667969 L 324.265625 150.667969 L 288.347656 212.453125 L 280.945312 199.765625 L 317.011719 137.828125 L 365.46875 137.828125 L 287.859375 271.140625 L 210.25 137.828125 L 225.089844 137.828125 L 287.859375 245.761719 Z M 343.222656 150.667969 " fill-opacity="1" fill-rule="nonzero"/></g></svg>