<svg xmlns="http://www.w3.org/2000/svg" xmlns:xlink="http://www.w3.org/1999/xlink" width="500" zoomAndPan="magnify" viewBox="0 0 375 374.999991" height="500" preserveAspectRatio="xMidYMid meet" version="1.0"><defs><g/><clipPath id="5a219c9659"><path d="M 0 109.207031 L 139.5 109.207031 L 139.5 265.957031 L 0 265.957031 Z M 0 109.207031 " clip-rule="nonzero"/></clipPath><clipPath id="f787f44dc9"><path d="M 196.261719 155.730469 L 275.011719 155.730469 L 275.011719 223.230469 L 196.261719 223.230469 Z M 196.261719 155.730469 " clip-rule="nonzero"/></clipPath></defs><g clip-path="url(#5a219c9659)"><path fill="#28a08c" d="M 78.15625 265.65625 C 35.0625 265.65625 0 230.59375 0 187.496094 C 0 144.40625 35.0625 109.34375 78.15625 109.34375 C 99.878906 109.34375 120.796875 118.496094 135.550781 134.449219 L 139.546875 138.773438 L 109.285156 166.757812 L 105.28125 162.4375 C 98.207031 154.78125 88.570312 150.566406 78.15625 150.566406 C 57.789062 150.566406 41.222656 167.136719 41.222656 187.496094 C 41.222656 198.515625 46.109375 208.882812 54.628906 215.945312 L 47.113281 225.011719 C 35.886719 215.707031 29.445312 202.03125 29.445312 187.496094 C 29.445312 160.640625 51.296875 138.789062 78.15625 138.789062 C 89.910156 138.789062 100.902344 142.855469 109.679688 150.347656 L 122.710938 138.300781 C 110.566406 127.324219 94.636719 121.125 78.15625 121.125 C 41.554688 121.125 11.777344 150.898438 11.777344 187.496094 C 11.777344 224.097656 41.554688 253.875 78.15625 253.875 C 92.128906 253.875 105.503906 249.582031 116.828125 241.453125 C 119.863281 239.277344 122.734375 236.816406 125.378906 234.144531 L 133.757812 242.417969 C 130.652344 245.5625 127.265625 248.460938 123.691406 251.019531 C 110.359375 260.59375 94.613281 265.65625 78.15625 265.65625 " fill-opacity="1" fill-rule="nonzero"/></g><g clip-path="url(#f787f44dc9)"><path fill="#dcdcdc" d="M 202.507812 155.730469 L 212.554688 173.0625 L 217.570312 181.59375 L 222.582031 190.332031 L 232.707031 207.613281 L 237.660156 216.207031 L 238.828125 218.132812 L 235.734375 223.429688 L 234.570312 221.507812 L 224.523438 204.238281 L 214.476562 186.910156 L 196.3125 155.730469 Z M 265.871094 161.09375 L 257.957031 161.09375 L 242.957031 186.894531 L 239.867188 181.59375 L 254.925781 155.730469 L 275.160156 155.730469 L 242.753906 211.398438 L 210.347656 155.730469 L 216.542969 155.730469 L 242.753906 200.800781 Z M 265.871094 161.09375 " fill-opacity="1" fill-rule="nonzero"/></g><g fill="#28a08c" fill-opacity="1"><g transform="translate(119.790642, 217.692589)"><g><path d="M 3.984375 -45.28125 C 3.984375 -41.609375 6.96875 -38.5625 10.703125 -38.5625 C 14.375 -38.5625 17.4375 -41.609375 17.4375 -45.28125 C 17.4375 -49.03125 14.375 -52.015625 10.703125 -52.015625 C 6.96875 -52.015625 3.984375 -49.03125 3.984375 -45.28125 Z M 16.453125 0 L 16.453125 -33.734375 L 4.96875 -33.734375 L 4.96875 0 Z M 16.453125 0 "/></g></g></g><g fill="#28a08c" fill-opacity="1"><g transform="translate(141.207842, 217.692589)"><g><path d="M 19.046875 -24.859375 L 25.171875 -24.859375 L 25.171875 -33.734375 L 19.046875 -33.734375 L 19.046875 -46.59375 L 7.65625 -46.59375 L 7.65625 -33.734375 L 1.53125 -33.734375 L 1.53125 -24.859375 L 7.65625 -24.859375 L 7.65625 0 L 19.046875 0 Z M 19.046875 -24.859375 "/></g></g></g><g fill="#28a08c" fill-opacity="1"><g transform="translate(167.902849, 217.692589)"><g><path d="M 18.28125 19.125 L 25.625 0 L 38.484375 -33.734375 L 26.84375 -33.734375 L 18.8125 -9.640625 L 10.78125 -33.734375 L -0.765625 -33.734375 L 12.09375 0 L 14 0 L 6.34375 19.125 Z M 18.28125 19.125 "/></g></g></g><g fill="#dcdcdc" fill-opacity="1"><g transform="translate(260.723601, 217.694624)"><g><path d="M 21.953125 -7.953125 C 15.75 -7.953125 14.078125 -12.46875 14.078125 -16.75 C 14.078125 -20.953125 15.90625 -25.46875 21.953125 -25.46875 C 27.921875 -25.46875 29.75 -20.953125 29.75 -16.75 C 29.75 -12.46875 28.0625 -7.953125 21.953125 -7.953125 Z M 21.953125 -34.421875 C 11.390625 -34.421875 2.671875 -27.375 2.671875 -16.828125 C 2.671875 -6.046875 11.171875 0.6875 21.953125 0.6875 C 32.65625 0.6875 41.15625 -6.046875 41.15625 -16.828125 C 41.15625 -27.375 32.421875 -34.421875 21.953125 -34.421875 Z M 21.953125 -34.421875 "/></g></g></g><g fill="#dcdcdc" fill-opacity="1"><g transform="translate(304.543141, 217.694624)"><g><path d="M 19.046875 -24.859375 L 25.15625 -24.859375 L 25.15625 -33.734375 L 19.046875 -33.734375 L 19.046875 -46.578125 L 7.65625 -46.578125 L 7.65625 -33.734375 L 1.53125 -33.734375 L 1.53125 -24.859375 L 7.65625 -24.859375 L 7.65625 0 L 19.046875 0 Z M 19.046875 -24.859375 "/></g></g></g><g fill="#dcdcdc" fill-opacity="1"><g transform="translate(331.232523, 217.694624)"><g><path d="M 14.984375 -20.875 C 14.984375 -20.875 15.375 -27.15625 22.5625 -27.15625 C 29.515625 -27.15625 30.0625 -20.875 30.0625 -20.875 Z M 41.078125 -17.59375 C 41.078125 -28.375 32.578125 -34.5 22.328125 -34.5 C 11.015625 -34.5 2.671875 -27.375 2.671875 -16.828125 C 2.671875 -6.125 10.703125 0.765625 22.328125 0.765625 C 31.28125 0.765625 38.46875 -3.671875 40.453125 -12.546875 L 28.765625 -12.546875 C 28.6875 -10.09375 26.15625 -7.421875 22.109375 -7.421875 C 17.59375 -7.421875 14.84375 -11.546875 14.84375 -15.453125 L 41 -15.453125 C 41 -16.140625 41.078125 -16.90625 41.078125 -17.59375 Z M 41.078125 -17.59375 "/></g></g></g></svg>